<?xml version="1.0" standalone="no"?><!DOCTYPE svg PUBLIC "-//W3C//DTD SVG 1.1//EN" "http://www.w3.org/Graphics/SVG/1.1/DTD/svg11.dtd"><svg class="icon" width="200px" height="188.24px" viewBox="0 0 1088 1024" version="1.1" xmlns="http://www.w3.org/2000/svg"><path fill="#333333" d="M32.901408 510.647887a32.901408 32.901408 0 0 1-22.535211-56.788732l450.704226-419.605634a127.098592 127.098592 0 0 1 169.915492 0L1078.084507 450.704225a32.901408 32.901408 0 0 1-45.070422 47.774648L585.915493 82.028169a61.295775 61.295775 0 0 0-83.830986 0l-450.704225 419.605634a32.450704 32.450704 0 0 1-18.478874 9.014084z"  /><path fill="#333333" d="M796.394366 1024h-157.295774v-318.647887a94.197183 94.197183 0 1 0-188.845071 0v318.647887H293.408451a126.647887 126.647887 0 0 1-126.647888-126.197183v-434.478873a32.901408 32.901408 0 0 1 65.802817 0v434.028169a60.84507 60.84507 0 0 0 60.845071 60.84507h90.140845v-252.84507a160 160 0 0 1 320 0v252.84507h90.140845A60.84507 60.84507 0 0 0 856.338028 897.802817v-434.478873a32.901408 32.901408 0 0 1 65.802817 0v434.028169a126.647887 126.647887 0 0 1-125.746479 126.647887z"  /></svg>